Coordinates
version=1
nRows=19
nColumns=34
inDegrees=no

Units are S.I. units (second, meters, Newtons, ...)
If the header above contains a line with 'inDegrees', this indicates whether rotational values are in degrees (yes) or radians (no).

endheader
time	pelvis_tilt	pelvis_list	pelvis_rotation	pelvis_tx	pelvis_ty	pelvis_tz	hip_flexion_r	hip_adduction_r	hip_rotation_r	knee_angle_r	ankle_angle_r	subtalar_angle_r	mtp_angle_r	hip_flexion_l	hip_adduction_l	hip_rotation_l	knee_angle_l	ankle_angle_l	subtalar_angle_l	mtp_angle_l	lumbar_extension	lumbar_bending	lumbar_rotation	arm_flex_r	arm_add_r	arm_rot_r	elbow_flex_r	pro_sup_r	arm_flex_l	arm_add_l	arm_rot_l	elbow_flex_l	pro_sup_l
6.59	-0.701198	-0.0944368	-0.0202145	-0.31062	0.645774	-0.565915	1.78764	-0.14961	-0.149248	1.6185	0.611653	-0.00778313	-0.0955883	1.86005	-0.647772	0.238746	1.32594	0.324219	0.255093	-0.0956359	-0.415792	-0.0385968	0.120257	1.8795	-0.417607	0.642222	2.21686	1.74029	1.97645	-0.490133	0.683606	2.1545	1.8623
6.6	-0.699188	-0.0945971	-0.019757	-0.309523	0.649507	-0.567409	1.77726	-0.14886	-0.147461	1.60786	0.607425	-0.00937117	-0.0955882	1.84689	-0.645584	0.231923	1.31802	0.322796	0.251053	-0.0956359	-0.409975	-0.0367427	0.120774	1.86777	-0.420326	0.641108	2.22106	1.73841	1.96624	-0.491583	0.682285	2.15596	1.86236
6.61	-0.697064	-0.0945157	-0.0192639	-0.308397	0.653441	-0.568925	1.76636	-0.148356	-0.145668	1.59658	0.602969	-0.0105674	-0.0955881	1.83287	-0.643474	0.224278	1.30944	0.321183	0.246796	-0.0956359	-0.404127	-0.0351135	0.121012	1.85476	-0.423468	0.639953	2.2254	1.7357	1.95498	-0.493167	0.680382	2.1577	1.86234
6.62	-0.694821	-0.0942047	-0.018682	-0.307243	0.657572	-0.570466	1.75494	-0.148144	-0.143887	1.58464	0.59831	-0.0114616	-0.0955881	1.81802	-0.641389	0.215809	1.30021	0.319312	0.242277	-0.0956359	-0.398246	-0.0336361	0.120862	1.84043	-0.426923	0.638749	2.22978	1.7324	1.94257	-0.494968	0.677792	2.15979	1.86218
6.63	-0.692451	-0.0937011	-0.017953	-0.306058	0.661892	-0.572039	1.74299	-0.148243	-0.142147	1.57206	0.593453	-0.0121823	-0.095588	1.80236	-0.639256	0.206563	1.29029	0.317106	0.237437	-0.095636	-0.392333	-0.032218	0.120237	1.82475	-0.430532	0.637447	2.23406	1.7288	1.92895	-0.497076	0.67445	2.16229	1.86165
6.64	-0.689951	-0.0930707	-0.0170322	-0.304841	0.666396	-0.573642	1.73052	-0.148636	-0.140499	1.55884	0.588386	-0.0128666	-0.095588	1.78597	-0.637006	0.196641	1.27965	0.314496	0.232235	-0.095636	-0.386374	-0.0307677	0.119108	1.80769	-0.434138	0.635953	2.23816	1.72513	1.91405	-0.499532	0.67036	2.16523	1.86036
6.65	-0.687337	-0.0924055	-0.0159035	-0.30359	0.671074	-0.575271	1.71752	-0.149274	-0.139016	1.54497	0.583088	-0.0136285	-0.0955879	1.76893	-0.634598	0.186194	1.26827	0.311431	0.226686	-0.095636	-0.380324	-0.0292158	0.117538	1.7892	-0.437647	0.634115	2.2421	1.7215	1.89782	-0.502262	0.665582	2.16858	1.85793
6.66	-0.684642	-0.0918137	-0.0145871	-0.302299	0.675916	-0.576914	1.70399	-0.150081	-0.137791	1.53045	0.577551	-0.0145346	-0.0955878	1.75138	-0.632028	0.175401	1.25612	0.3079	0.220886	-0.0956361	-0.374094	-0.0275303	0.115683	1.76915	-0.441075	0.631739	2.24596	1.71794	1.88022	-0.505043	0.660231	2.17227	1.85419
6.67	-0.68193	-0.0914029	-0.0131376	-0.300965	0.680906	-0.578557	1.68996	-0.150971	-0.136928	1.51526	0.571779	-0.0155964	-0.0955878	1.73348	-0.629329	0.164439	1.24324	0.30394	0.215021	-0.0956361	-0.367551	-0.0257221	0.113775	1.7474	-0.444552	0.628604	2.24993	1.71452	1.86119	-0.50753	0.654457	2.17613	1.84933
6.68	-0.679265	-0.0912588	-0.0116349	-0.299583	0.686029	-0.580186	1.67546	-0.151854	-0.136513	1.49939	0.565789	-0.0167801	-0.0955877	1.71537	-0.626565	0.153456	1.22964	0.29964	0.209329	-0.0956361	-0.360549	-0.0238404	0.112064	1.72379	-0.448257	0.624495	2.25422	1.71138	1.84071	-0.509345	0.648427	2.18	1.84385
6.69	-0.676666	-0.0914218	-0.010162	-0.298147	0.691273	-0.581789	1.66048	-0.152646	-0.136591	1.48284	0.559601	-0.0180265	-0.0955877	1.69712	-0.623816	0.142542	1.21539	0.295124	0.204051	-0.0956361	-0.353021	-0.0219556	0.110746	1.69821	-0.452299	0.619257	2.25895	1.70876	1.81885	-0.510222	0.642285	2.1837	1.83853
6.7	-0.674055	-0.0918699	-0.00877655	-0.296651	0.696635	-0.583362	1.64495	-0.153285	-0.13714	1.46565	0.553234	-0.0192695	-0.0955876	1.67864	-0.621148	0.131711	1.20054	0.290525	0.199363	-0.0956362	-0.345059	-0.0201371	0.109888	1.67074	-0.456627	0.612858	2.26416	1.70684	1.79573	-0.510115	0.636124	2.18714	1.83406
6.71	-0.671256	-0.0925196	-0.00749177	-0.295092	0.702119	-0.584911	1.62875	-0.153752	-0.138066	1.44787	0.546704	-0.0204461	-0.0955875	1.65972	-0.618583	0.120903	1.18513	0.285955	0.195349	-0.0956362	-0.336914	-0.0184385	0.109422	1.64162	-0.461033	0.605411	2.26973	1.70563	1.77157	-0.50918	0.629978	2.19031	1.83095
6.72	-0.66806	-0.0932463	-0.00627814	-0.293466	0.707735	-0.58645	1.61174	-0.154077	-0.139222	1.42955	0.540031	-0.0215017	-0.0955875	1.64006	-0.616083	0.11001	1.1692	0.281486	0.191985	-0.0956362	-0.328904	-0.0168983	0.109205	1.61122	-0.465271	0.59714	2.2755	1.70502	1.7466	-0.50766	0.623846	2.19325	1.82948
6.73	-0.664296	-0.0939124	-0.00508444	-0.291775	0.713487	-0.588	1.59381	-0.154324	-0.140441	1.41078	0.533231	-0.0223946	-0.0955874	1.61939	-0.613559	0.0989104	1.1528	0.277143	0.189152	-0.0956362	-0.321302	-0.015546	0.109098	1.57991	-0.469162	0.588326	2.28134	1.70474	1.72101	-0.505759	0.617717	2.19602	1.82969
6.74	-0.659871	-0.094394	-0.00386547	-0.290021	0.719375	-0.589578	1.57495	-0.15456	-0.141567	1.39159	0.526319	-0.0231038	-0.0955874	1.59753	-0.610904	0.0875081	1.13594	0.272915	0.18667	-0.0956363	-0.314279	-0.0144014	0.10902	1.54806	-0.472639	0.579257	2.28715	1.70451	1.69487	-0.503585	0.611579	2.1987	1.83143
6.75	-0.654782	-0.0946039	-0.00260525	-0.288211	0.725389	-0.591202	1.55519	-0.154825	-0.142482	1.372	0.519303	-0.0236395	-0.0955873	1.57444	-0.608024	0.0757589	1.11864	0.26876	0.184336	-0.0956363	-0.307876	-0.0134671	0.108964	1.51596	-0.475727	0.570191	2.29291	1.70412	1.66821	-0.501152	0.605417	2.20137	1.83443
6.76	-0.649097	-0.0945061	-0.00132887	-0.286351	0.731515	-0.592883	1.53462	-0.155106	-0.143114	1.35202	0.512181	-0.0240497	-0.0955872	1.55016	-0.604866	0.063688	1.10093	0.264622	0.181949	-0.0956363	-0.302033	-0.0127205	0.108992	1.48381	-0.478502	0.561323	2.29858	1.70352	1.64096	-0.498418	0.599205	2.20413	1.83828
6.77	-0.642928	-0.0941167	-9.84523e-05	-0.284446	0.737731	-0.594624	1.51337	-0.155336	-0.143442	1.33161	0.504942	-0.0244128	-0.0955872	1.52487	-0.601428	0.0513821	1.08284	0.26044	0.179342	-0.0956363	-0.29661	-0.0121132	0.1092	1.45174	-0.481045	0.552775	2.30414	1.70288	1.61304	-0.49532	0.592902	2.20707	1.84243
